<?xml version="1.0" encoding="UTF-8" standalone="no"?>
<!-- Created with Inkscape (http://www.inkscape.org/) -->

<svg
   width="5.3127246in"
   height="2.7255745in"
   viewBox="0 0 134.9432 69.229592"
   version="1.1"
   id="svg5"
   inkscape:version="1.1 (1:1.1+202105261517+ce6663b3b7)"
   sodipodi:docname="ear.svg"
   xmlns:inkscape="http://www.inkscape.org/namespaces/inkscape"
   xmlns:sodipodi="http://sodipodi.sourceforge.net/DTD/sodipodi-0.dtd"
   xmlns="http://www.w3.org/2000/svg"
   xmlns:svg="http://www.w3.org/2000/svg">
  <sodipodi:namedview
     id="namedview7"
     pagecolor="#ffffff"
     bordercolor="#666666"
     borderopacity="1.0"
     inkscape:pageshadow="2"
     inkscape:pageopacity="0.0"
     inkscape:pagecheckerboard="0"
     inkscape:document-units="mm"
     showgrid="false"
     inkscape:snap-global="false"
     inkscape:zoom="6.9870322"
     inkscape:cx="399.52585"
     inkscape:cy="207.59887"
     inkscape:window-width="1864"
     inkscape:window-height="1009"
     inkscape:window-x="1136"
     inkscape:window-y="874"
     inkscape:window-maximized="1"
     inkscape:current-layer="layer1"
     units="in"
     fit-margin-top="0"
     fit-margin-left="0"
     fit-margin-right="0"
     fit-margin-bottom="0" />
  <defs
     id="defs2" />
  <g
     inkscape:label="レイヤー 1"
     inkscape:groupmode="layer"
     id="layer1"
     transform="translate(-28.045071,-61.557585)">
    <rect
       style="font-variation-settings:normal;opacity:1;fill:#ffffff;fill-opacity:1;stroke:#000000;stroke-width:0.420158;stroke-linecap:butt;stroke-linejoin:miter;stroke-miterlimit:4;stroke-dasharray:none;stroke-dashoffset:0;stroke-opacity:1;stop-color:#000000;stop-opacity:1"
       id="rect7216"
       width="15.177989"
       height="6.5371795"
       x="63.789768"
       y="149.74548"
       ry="0"
       transform="rotate(-31.482783)" />
    <path
       style="color:#000000;fill:#ffffff;fill-opacity:1;stroke:#000000;stroke-width:0.529167;stroke-miterlimit:4;stroke-dasharray:none;stroke-opacity:1"
       d="m 109.93225,72.482089 c -0.68336,-0.254196 -1.46391,-0.419918 -2.33735,-0.509387 -1.1344,-0.116204 -2.22737,0.281816 -3.04281,0.950263 -0.81544,0.668447 -1.41308,1.564027 -1.90849,2.577539 -0.99083,2.027021 -1.58285,4.587403 -1.98883,7.147304 -0.811958,5.119804 -0.813381,10.252786 -0.813381,10.252786 l -0.0042,3.13589 2.248311,-2.184752 c 0,0 4.77984,-4.61916 8.04582,-9.542535 1.63299,-2.461689 2.97309,-4.964709 2.97409,-7.411514 4.9e-4,-1.223404 -0.4394,-2.489441 -1.41531,-3.375754 -0.48796,-0.443156 -1.0745,-0.785638 -1.75785,-1.039837 z m -0.0215,2.998265 c 0.39915,0.362512 0.54838,0.738451 0.5481,1.414343 -5.6e-4,1.351788 -1.01928,3.67201 -2.53246,5.953031 -1.69479,2.55485 -3.68783,4.856047 -5.30119,6.604807 0.10364,-1.816661 0.27788,-4.091297 0.64247,-6.390281 0.38445,-2.424128 0.97437,-4.809172 1.75189,-6.399752 0.38872,-0.795309 0.82225,-1.377346 1.20828,-1.69379 0.38603,-0.316448 0.66432,-0.409139 1.09727,-0.364788 1.39719,0.143123 2.1865,0.51392 2.58567,0.876437 z"
       id="path4831-7" />
    <path
       style="color:#000000;fill:#ffffff;fill-opacity:1;stroke:#000000;stroke-width:0.529167;stroke-miterlimit:4;stroke-dasharray:none;stroke-opacity:1"
       d="m 97.230995,73.56261 c -0.704703,0.187047 -1.437674,0.50245 -2.202453,0.933737 -0.99328,0.560148 -1.655807,1.516212 -1.935605,2.532814 -0.279791,1.0166 -0.250611,2.092886 -0.06986,3.206427 0.361481,2.227079 1.356528,4.659345 2.503204,6.983793 2.293353,4.648893 5.256069,8.840527 5.256069,8.840527 l 1.8073,2.562718 0.57411,-3.081953 c 0,0 1.2353,-6.531275 1.05896,-12.436793 -0.0882,-2.95276 -0.43934,-5.770147 -1.85136,-7.768408 -0.70601,-0.999132 -1.79619,-1.778787 -3.104745,-1.938903 -0.654275,-0.08006 -1.33091,-0.021 -2.035615,0.166041 z m 1.71368,2.460355 c 0.535218,0.06549 0.874125,0.28626 1.264165,0.838254 0.7801,1.103984 1.28806,3.586572 1.36977,6.32263 0.0915,3.064509 -0.20696,6.094131 -0.5144,8.453487 -0.96438,-1.54305 -2.135537,-3.50078 -3.165332,-5.588307 -1.085854,-2.201165 -1.981383,-4.489058 -2.265034,-6.23663 -0.141864,-0.87378 -0.123988,-1.599312 0.0085,-2.080575 0.132439,-0.481266 0.306143,-0.717633 0.685229,-0.931414 1.223375,-0.689911 2.081914,-0.842937 2.617132,-0.777445 z"
       id="path4831-7-5" />
    <path
       style="color:#000000;fill:#ffffff;fill-opacity:1;stroke:#000000;stroke-width:0.529167;stroke-miterlimit:4;stroke-dasharray:none;stroke-opacity:1"
       d="m 91.111323,81.511988 c -0.34321,0.491271 -0.636075,1.078124 -0.88744,1.75461 -0.326456,0.8786 -0.235234,1.830314 0.128402,2.616999 0.363653,0.786672 0.952907,1.446932 1.657104,2.050166 1.408395,1.206471 3.323407,2.205669 5.276421,3.056737 3.90603,1.702131 7.98975,2.762087 7.98975,2.762087 l 2.49417,0.650206 -1.27449,-2.23951 c 0,0 -2.68921,-4.755867 -5.93274,-8.37 -1.621765,-1.807065 -3.336832,-3.389625 -5.283395,-3.895143 -0.973293,-0.252754 -2.071337,-0.163921 -2.977837,0.42973 -0.453243,0.29682 -0.846733,0.692849 -1.189943,1.184117 z m 2.381096,0.635604 c 0.37077,-0.242808 0.700663,-0.283989 1.238368,-0.144344 1.075427,0.279282 2.711324,1.568467 4.214075,3.242909 1.683138,1.87546 3.102938,3.935886 4.161528,5.580265 -1.42404,-0.457187 -3.197891,-1.065027 -4.951837,-1.829354 -1.849435,-0.805929 -3.625381,-1.767276 -4.730527,-2.713989 -0.552604,-0.473327 -0.926263,-0.938326 -1.098406,-1.310747 -0.172303,-0.372343 -0.188487,-0.61296 -0.06396,-0.948273 0.402083,-1.082134 0.859926,-1.633657 1.230696,-1.876466 z"
       id="path4831-7-5-6" />
    <ellipse
       style="font-variation-settings:normal;opacity:1;fill:#ffffff;fill-opacity:1;stroke:#000000;stroke-width:0.529167;stroke-linecap:butt;stroke-linejoin:miter;stroke-miterlimit:4;stroke-dasharray:none;stroke-dashoffset:0;stroke-opacity:1;stop-color:#000000;stop-opacity:1"
       id="path5365"
       cx="103.65473"
       cy="95.020325"
       rx="8.4130383"
       ry="8.0867729" />
    <path
       style="fill:none;stroke:#000000;stroke-width:0.529167;stroke-linecap:butt;stroke-linejoin:miter;stroke-miterlimit:4;stroke-dasharray:none;stroke-opacity:1"
       d="m 80.912431,92.554843 c 0,0 -15.435482,0.292921 -23.238073,-1.140115 -7.802592,-1.433036 -4.236127,-8.25167 -7.455717,-18.202068 -2.130755,-6.585267 -20.939109,-21.727845 -21.854398,-0.4279 -0.915289,21.299948 9.954283,27.45674 9.721757,36.52682 -0.232526,9.07008 -5.719669,8.09082 -5.09811,15.83973 0.664376,8.2827 10.004347,6.45228 16.326225,-1.83409 6.321878,-8.28637 0.560534,-20.34151 8.546652,-20.60322 7.986117,-0.26171 23.080038,-0.13227 23.080038,-0.13227"
       id="path42"
       sodipodi:nodetypes="cscszszsc" />
    <ellipse
       style="fill:#ff0000;fill-opacity:1;stroke:#000000;stroke-width:0.503558;stroke-miterlimit:4;stroke-dasharray:none;stroke-opacity:1;stop-color:#000000"
       id="path865"
       cx="80.882835"
       cy="97.584671"
       rx="0.82673347"
       ry="5.0250235" />
    <path
       style="fill:#ffcc00;fill-opacity:1;stroke:#000000;stroke-width:0.529167;stroke-linecap:butt;stroke-linejoin:miter;stroke-miterlimit:4;stroke-dasharray:none;stroke-opacity:1"
       d="m 81.09905,95.178911 0.0011,4.971219 4.353335,-6.449626 2.465144,-1.622957 -1.319072,-3.727371 -1.845445,3.453449 z"
       id="path2409"
       sodipodi:nodetypes="ccccccc" />
    <path
       style="font-variation-settings:normal;opacity:1;vector-effect:none;fill:#ffcc00;fill-opacity:1;stroke:#000000;stroke-width:0.529167;stroke-linecap:butt;stroke-linejoin:miter;stroke-miterlimit:4;stroke-dasharray:none;stroke-dashoffset:0;stroke-opacity:1;-inkscape-stroke:none;stop-color:#000000;stop-opacity:1"
       d="m 86.018742,88.088106 0.812228,5.866025 5.215633,1.527889 0.01003,-1.074959 -3.315716,-6.743889 z"
       id="path3167"
       sodipodi:nodetypes="cccccc" />
    <path
       style="font-variation-settings:normal;opacity:1;vector-effect:none;fill:#ffcc00;fill-opacity:1;stroke:#000000;stroke-width:0.529167;stroke-linecap:butt;stroke-linejoin:miter;stroke-miterlimit:4;stroke-dasharray:none;stroke-dashoffset:0;stroke-opacity:1;-inkscape-stroke:none;stop-color:#000000;stop-opacity:1"
       d="m 92.420997,94.994085 1.709497,0.658215 2.356189,1.378921 c 0,0 -0.665194,-0.720896 -0.681065,-2.016761 -0.01587,-1.295865 0.747975,-2.137381 0.747975,-2.137381 l -2.524839,1.474005 z"
       id="path3951"
       sodipodi:nodetypes="ccczccc" />
    <path
       id="path6477"
       style="fill:#ffffff;fill-opacity:1;fill-rule:evenodd;stroke:#000000;stroke-width:0.496161"
       d="m 122.37298,101.2342 c -0.9482,-0.0478 -0.40334,-1.301747 0.0795,-1.575977 1.30844,-0.74314 2.74539,0.494287 3.0725,1.734927 0.58509,2.2192 -1.28542,4.23206 -3.39039,4.569 -3.08911,0.49442 -5.74572,-2.08112 -6.06551,-5.04584 -0.42622,-3.951487 2.87762,-7.269863 6.70129,-7.562014 4.81169,-0.367647 8.79922,3.674317 9.05852,8.356734 0.31408,5.67105 -4.47107,10.33156 -10.01219,10.55506 -6.53001,0.26337 -11.86573,-5.26789 -12.05154,-11.66766 -0.21453,-7.388792 6.06468,-13.401177 13.32309,-13.548062 8.24747,-0.166902 14.9375,6.861536 15.04459,14.978552 0.12013,9.10608 -7.65839,16.47443 -16.63402,16.54108 -9.96464,0.074 -18.01185,-8.45525 -18.03759,-18.28946" />
    <text
       xml:space="preserve"
       style="font-style:normal;font-weight:normal;font-size:7.05556px;line-height:1.25;font-family:sans-serif;letter-spacing:0px;word-spacing:0px;fill:#000000;fill-opacity:1;stroke:none;stroke-width:0.222554"
       x="79.618408"
       y="77.930038"
       id="text13094"><tspan
         sodipodi:role="line"
         id="tspan13092"
         style="font-style:normal;font-variant:normal;font-weight:normal;font-stretch:normal;font-size:7.05556px;font-family:MotoyaLMaru;-inkscape-font-specification:MotoyaLMaru;writing-mode:tb-rl;stroke-width:0.222554"
         x="77.930038"
         y="79.618408">鼓膜</tspan></text>
    <text
       xml:space="preserve"
       style="font-style:normal;font-weight:normal;font-size:7.05556px;line-height:1.25;font-family:sans-serif;letter-spacing:0px;word-spacing:0px;fill:#000000;fill-opacity:1;stroke:none;stroke-width:0.222554"
       x="37.378189"
       y="73.49247"
       id="text13094-7"><tspan
         sodipodi:role="line"
         id="tspan13092-0"
         style="font-style:normal;font-variant:normal;font-weight:normal;font-stretch:normal;font-size:7.05556px;font-family:MotoyaLMaru;-inkscape-font-specification:MotoyaLMaru;writing-mode:tb-rl;stroke-width:0.222554"
         x="73.49247"
         y="37.378189">耳介</tspan></text>
    <text
       xml:space="preserve"
       style="font-style:normal;font-weight:normal;font-size:7.05556px;line-height:1.25;font-family:sans-serif;letter-spacing:0px;word-spacing:0px;fill:#000000;fill-opacity:1;stroke:none;stroke-width:0.147616"
       x="53.727173"
       y="99.975937"
       id="text13094-7-9"><tspan
         sodipodi:role="line"
         id="tspan13092-0-3"
         style="font-style:normal;font-variant:normal;font-weight:normal;font-stretch:normal;font-size:7.05556px;font-family:MotoyaLMaru;-inkscape-font-specification:MotoyaLMaru;writing-mode:lr-tb;stroke-width:0.147616"
         x="53.727173"
         y="99.975937">外耳道</tspan></text>
    <text
       xml:space="preserve"
       style="font-style:normal;font-weight:normal;font-size:7.05556px;line-height:1.25;font-family:sans-serif;letter-spacing:0px;word-spacing:0px;fill:#000000;fill-opacity:1;stroke:none;stroke-width:0.19646"
       x="87.359993"
       y="95.918846"
       id="text13094-5"><tspan
         sodipodi:role="line"
         id="tspan13092-3"
         style="font-style:normal;font-variant:normal;font-weight:normal;font-stretch:normal;font-size:7.05556px;font-family:MotoyaLMaru;-inkscape-font-specification:MotoyaLMaru;writing-mode:tb-rl;stroke-width:0.19646"
         x="95.918846"
         y="87.359993">耳小骨</tspan></text>
    <g
       id="g105918"
       transform="translate(3.0606059,-10.066366)">
      <text
         xml:space="preserve"
         style="font-style:normal;font-weight:normal;font-size:7.05556px;line-height:1.25;font-family:sans-serif;letter-spacing:0px;word-spacing:0px;white-space:pre;inline-size:0;fill:#000000;fill-opacity:1;stroke:#ffffff;stroke-width:1.32292;stroke-miterlimit:4;stroke-dasharray:none;stroke-opacity:1"
         x="120.25751"
         y="128.46864"
         id="text13094-5-2"
         transform="translate(-7.1986654,-22.387961)"><tspan
           id="tspan13092-3-9"
           style="font-style:normal;font-variant:normal;font-weight:normal;font-stretch:normal;font-size:7.05556px;font-family:MotoyaLMaru;-inkscape-font-specification:MotoyaLMaru;stroke:#ffffff;stroke-width:1.32292;stroke-miterlimit:4;stroke-dasharray:none;stroke-opacity:1"
           x="120.25751"
           y="128.46864">蝸牛</tspan></text>
      <text
         xml:space="preserve"
         style="font-style:normal;font-weight:normal;font-size:7.05556px;line-height:1.25;font-family:sans-serif;letter-spacing:0px;word-spacing:0px;white-space:pre;inline-size:0;fill:#000000;fill-opacity:1;stroke:none;stroke-width:0.19646"
         x="120.25751"
         y="128.46864"
         id="text13094-5-2-62"
         transform="translate(-7.1986654,-22.387961)"><tspan
           id="tspan13092-3-9-6"
           style="font-style:normal;font-variant:normal;font-weight:normal;font-stretch:normal;font-size:7.05556px;font-family:MotoyaLMaru;-inkscape-font-specification:MotoyaLMaru;stroke-width:0.19646"
           x="120.25751"
           y="128.46864">蝸牛</tspan></text>
    </g>
    <text
       xml:space="preserve"
       style="font-style:normal;font-weight:normal;font-size:7.05556px;line-height:1.25;font-family:sans-serif;letter-spacing:0px;word-spacing:0px;white-space:pre;inline-size:0;fill:#000000;fill-opacity:1;stroke:none;stroke-width:0.19646"
       x="120.25751"
       y="128.46864"
       id="text13094-5-2-6"
       transform="translate(14.791023,-11.633019)"><tspan
         id="tspan13092-3-9-0"
         style="font-style:normal;font-variant:normal;font-weight:normal;font-stretch:normal;font-size:7.05556px;font-family:MotoyaLMaru;-inkscape-font-specification:MotoyaLMaru;stroke-width:0.19646"
         x="120.25751"
         y="128.46864">有毛細胞</tspan></text>
    <text
       xml:space="preserve"
       style="font-style:normal;font-weight:normal;font-size:7.05556px;line-height:1.25;font-family:sans-serif;letter-spacing:0px;word-spacing:0px;white-space:pre;inline-size:0;fill:#000000;fill-opacity:1;stroke:none;stroke-width:0.19646"
       x="120.25751"
       y="128.46864"
       id="text13094-5-2-1"
       transform="rotate(-34.957392,75.637677,64.041773)"><tspan
         id="tspan13092-3-9-2"
         style="font-style:normal;font-variant:normal;font-weight:normal;font-stretch:normal;font-size:7.05556px;font-family:MotoyaLMaru;-inkscape-font-specification:MotoyaLMaru;stroke-width:0.19646"
         x="120.25751"
         y="128.46864">脳へ</tspan></text>
    <text
       xml:space="preserve"
       style="font-style:normal;font-weight:normal;font-size:2.89911px;line-height:1.25;font-family:sans-serif;letter-spacing:0px;word-spacing:0px;fill:#000000;fill-opacity:1;stroke:none;stroke-width:0.0724781"
       x="34.603321"
       y="168.45372"
       id="text78787"
       transform="matrix(0.83311657,-0.56438218,0.58462897,0.80426419,0,0)"><tspan
         sodipodi:role="line"
         id="tspan78785"
         style="font-style:normal;font-variant:normal;font-weight:bold;font-stretch:normal;font-family:sans-serif;-inkscape-font-specification:'sans-serif Bold';fill:#000000;fill-opacity:1;stroke:#000000;stroke-width:0.0724781;stroke-opacity:1"
         x="34.603321"
         y="168.45372">|||||||</tspan></text>
    <path
       style="fill:none;stroke:#000000;stroke-width:0.47625;stroke-linecap:butt;stroke-linejoin:miter;stroke-miterlimit:4;stroke-dasharray:none;stroke-opacity:1"
       d="m 130.34698,109.57073 c 0,0 -4.79714,3.15935 -4.95609,3.44502 -0.15894,0.28567 0.22151,0.69074 0.68762,0.29236 0.4661,-0.39838 4.64359,-3.10962 4.64359,-3.10962"
       id="path97076" />
  </g>
</svg>
